<svg width="42" height="58" viewBox="0 0 42 58" fill="none" xmlns="http://www.w3.org/2000/svg">
<path fill-rule="evenodd" clip-rule="evenodd" d="M20.4328 39.9537C9.09701 39.6677 0 30.8349 0 19.9805C0 8.94554 9.40201 0 21 0C32.5981 0 42 8.94554 42 19.9805C42 23.8245 40.8591 27.415 38.8817 30.4622L23.1698 58L13.1029 52.8007L20.4328 39.9537ZM29.0048 24.9299C27.302 27.4177 24.3529 29.0625 21 29.0625C15.7282 29.0625 11.4545 24.9963 11.4545 19.9805C11.4545 14.9646 15.7282 10.8984 21 10.8984C26.2718 10.8984 30.5455 14.9646 30.5455 19.9805C30.5455 21.4564 30.1579 22.909 29.4176 24.2062L29.0048 24.9299Z" fill="black"/>
</svg>
